<svg width="1050" height="300" viewBox="0 0 1050 300" fill="none" xmlns="http://www.w3.org/2000/svg">
<rect width="1050" height="300" fill="#00679A"/>
<path d="M417.118 150.022H412.253L412.227 147.979H416.643C417.373 147.979 418.01 147.855 418.555 147.609C419.1 147.363 419.521 147.012 419.82 146.555C420.128 146.089 420.282 145.535 420.282 144.894C420.282 144.19 420.146 143.619 419.873 143.18C419.609 142.731 419.201 142.406 418.647 142.204C418.102 141.993 417.408 141.888 416.564 141.888H412.82V159H410.275V139.805H416.564C417.548 139.805 418.427 139.906 419.201 140.108C419.974 140.301 420.629 140.609 421.165 141.031C421.71 141.444 422.123 141.971 422.404 142.613C422.686 143.254 422.826 144.023 422.826 144.92C422.826 145.711 422.624 146.427 422.22 147.069C421.815 147.702 421.253 148.22 420.532 148.625C419.82 149.029 418.985 149.288 418.027 149.402L417.118 150.022ZM416.999 159H411.251L412.688 156.93H416.999C417.808 156.93 418.493 156.79 419.056 156.508C419.627 156.227 420.062 155.832 420.361 155.322C420.66 154.803 420.809 154.192 420.809 153.489C420.809 152.777 420.682 152.162 420.427 151.644C420.172 151.125 419.772 150.725 419.227 150.444C418.682 150.163 417.979 150.022 417.118 150.022H413.492L413.519 147.979H418.476L419.016 148.717C419.939 148.796 420.721 149.06 421.363 149.508C422.004 149.947 422.492 150.51 422.826 151.195C423.169 151.881 423.34 152.637 423.34 153.463C423.34 154.658 423.077 155.669 422.549 156.495C422.031 157.312 421.297 157.937 420.348 158.367C419.398 158.789 418.282 159 416.999 159ZM434.204 141.505L427.849 159H425.252L432.569 139.805H434.243L434.204 141.505ZM439.53 159L433.162 141.505L433.123 139.805H434.797L442.14 159H439.53ZM439.2 151.894V153.977H428.416V151.894H439.2ZM459.477 139.805V159H456.919L447.255 144.195V159H444.711V139.805H447.255L456.958 154.649V139.805H459.477ZM478.751 139.805V159H476.193L466.53 144.195V159H463.985V139.805H466.53L476.233 154.649V139.805H478.751ZM495.455 156.93V159H485.29V156.93H495.455ZM485.804 139.805V159H483.26V139.805H485.804ZM494.11 148.058V150.127H485.29V148.058H494.11ZM495.323 139.805V141.888H485.29V139.805H495.323ZM498.605 139.805H504.96C506.401 139.805 507.619 140.024 508.612 140.464C509.614 140.903 510.374 141.554 510.893 142.415C511.42 143.268 511.684 144.318 511.684 145.566C511.684 146.445 511.503 147.249 511.143 147.979C510.792 148.699 510.282 149.314 509.614 149.824C508.955 150.325 508.164 150.699 507.241 150.945L506.529 151.222H500.557L500.53 149.152H505.039C505.953 149.152 506.713 148.994 507.32 148.677C507.926 148.352 508.383 147.917 508.691 147.372C508.999 146.827 509.152 146.225 509.152 145.566C509.152 144.828 509.007 144.182 508.717 143.628C508.427 143.074 507.97 142.648 507.346 142.349C506.731 142.042 505.936 141.888 504.96 141.888H501.15V159H498.605V139.805ZM509.825 159L505.158 150.299L507.808 150.286L512.541 158.842V159H509.825ZM529.323 139.699V159H526.884V142.745L521.967 144.538V142.336L528.941 139.699H529.323ZM548.545 147.873V150.8C548.545 152.373 548.404 153.7 548.123 154.781C547.842 155.862 547.438 156.732 546.91 157.392C546.383 158.051 545.746 158.53 544.999 158.829C544.26 159.119 543.425 159.264 542.494 159.264C541.755 159.264 541.074 159.171 540.45 158.987C539.826 158.802 539.264 158.508 538.763 158.104C538.271 157.69 537.849 157.154 537.497 156.495C537.146 155.836 536.877 155.036 536.693 154.096C536.508 153.155 536.416 152.057 536.416 150.8V147.873C536.416 146.3 536.557 144.981 536.838 143.918C537.128 142.854 537.537 142.002 538.064 141.36C538.591 140.71 539.224 140.244 539.962 139.963C540.709 139.682 541.544 139.541 542.467 139.541C543.214 139.541 543.9 139.633 544.524 139.818C545.157 139.994 545.719 140.279 546.211 140.675C546.704 141.062 547.121 141.58 547.464 142.23C547.815 142.872 548.083 143.659 548.268 144.59C548.453 145.522 548.545 146.616 548.545 147.873ZM546.093 151.195V147.464C546.093 146.603 546.04 145.847 545.935 145.197C545.838 144.538 545.693 143.975 545.5 143.509C545.306 143.043 545.06 142.666 544.761 142.375C544.471 142.085 544.133 141.875 543.746 141.743C543.368 141.602 542.942 141.532 542.467 141.532C541.887 141.532 541.373 141.642 540.925 141.861C540.477 142.072 540.099 142.411 539.791 142.876C539.492 143.342 539.264 143.953 539.105 144.709C538.947 145.465 538.868 146.383 538.868 147.464V151.195C538.868 152.057 538.917 152.817 539.013 153.476C539.119 154.135 539.272 154.707 539.475 155.19C539.677 155.665 539.923 156.056 540.213 156.363C540.503 156.671 540.837 156.899 541.215 157.049C541.602 157.189 542.028 157.26 542.494 157.26C543.091 157.26 543.614 157.146 544.062 156.917C544.511 156.688 544.884 156.333 545.183 155.849C545.491 155.357 545.719 154.729 545.869 153.964C546.018 153.19 546.093 152.268 546.093 151.195ZM554.768 149.864L552.816 149.363L553.779 139.805H563.627V142.059H555.849L555.269 147.28C555.62 147.078 556.064 146.889 556.6 146.713C557.145 146.537 557.769 146.449 558.472 146.449C559.36 146.449 560.155 146.603 560.858 146.911C561.562 147.209 562.159 147.64 562.651 148.203C563.152 148.765 563.535 149.442 563.798 150.233C564.062 151.024 564.194 151.907 564.194 152.883C564.194 153.806 564.066 154.654 563.812 155.427C563.565 156.201 563.192 156.877 562.691 157.458C562.19 158.029 561.557 158.473 560.792 158.789C560.037 159.105 559.145 159.264 558.116 159.264C557.343 159.264 556.609 159.158 555.915 158.947C555.229 158.728 554.614 158.398 554.069 157.958C553.533 157.51 553.093 156.957 552.75 156.297C552.417 155.629 552.206 154.847 552.118 153.951H554.438C554.543 154.671 554.754 155.278 555.071 155.77C555.387 156.262 555.8 156.636 556.31 156.891C556.829 157.137 557.431 157.26 558.116 157.26C558.696 157.26 559.21 157.159 559.659 156.957C560.107 156.754 560.485 156.464 560.792 156.086C561.1 155.708 561.333 155.251 561.491 154.715C561.658 154.179 561.742 153.577 561.742 152.909C561.742 152.303 561.658 151.74 561.491 151.222C561.324 150.703 561.074 150.25 560.74 149.864C560.415 149.477 560.015 149.178 559.54 148.967C559.065 148.748 558.521 148.638 557.905 148.638C557.088 148.638 556.468 148.748 556.046 148.967C555.633 149.187 555.207 149.486 554.768 149.864ZM578.92 147.873V150.8C578.92 152.373 578.779 153.7 578.498 154.781C578.217 155.862 577.812 156.732 577.285 157.392C576.758 158.051 576.121 158.53 575.374 158.829C574.635 159.119 573.8 159.264 572.869 159.264C572.13 159.264 571.449 159.171 570.825 158.987C570.201 158.802 569.639 158.508 569.138 158.104C568.646 157.69 568.224 157.154 567.872 156.495C567.521 155.836 567.252 155.036 567.068 154.096C566.883 153.155 566.791 152.057 566.791 150.8V147.873C566.791 146.3 566.932 144.981 567.213 143.918C567.503 142.854 567.912 142.002 568.439 141.36C568.966 140.71 569.599 140.244 570.337 139.963C571.084 139.682 571.919 139.541 572.842 139.541C573.589 139.541 574.275 139.633 574.899 139.818C575.532 139.994 576.094 140.279 576.586 140.675C577.079 141.062 577.496 141.58 577.839 142.23C578.19 142.872 578.458 143.659 578.643 144.59C578.828 145.522 578.92 146.616 578.92 147.873ZM576.468 151.195V147.464C576.468 146.603 576.415 145.847 576.31 145.197C576.213 144.538 576.068 143.975 575.875 143.509C575.681 143.043 575.435 142.666 575.136 142.375C574.846 142.085 574.508 141.875 574.121 141.743C573.743 141.602 573.317 141.532 572.842 141.532C572.262 141.532 571.748 141.642 571.3 141.861C570.852 142.072 570.474 142.411 570.166 142.876C569.867 143.342 569.639 143.953 569.48 144.709C569.322 145.465 569.243 146.383 569.243 147.464V151.195C569.243 152.057 569.292 152.817 569.388 153.476C569.494 154.135 569.647 154.707 569.85 155.19C570.052 155.665 570.298 156.056 570.588 156.363C570.878 156.671 571.212 156.899 571.59 157.049C571.977 157.189 572.403 157.26 572.869 157.26C573.466 157.26 573.989 157.146 574.438 156.917C574.886 156.688 575.259 156.333 575.558 155.849C575.866 155.357 576.094 154.729 576.244 153.964C576.393 153.19 576.468 152.268 576.468 151.195ZM584.338 139.805L588.953 147.161L593.567 139.805H596.533L590.469 149.31L596.678 159H593.686L588.953 151.499L584.22 159H581.227L587.437 149.31L581.372 139.805H584.338ZM602.545 148.203H604.285C605.138 148.203 605.841 148.062 606.395 147.781C606.957 147.491 607.375 147.1 607.647 146.607C607.928 146.106 608.069 145.544 608.069 144.92C608.069 144.182 607.946 143.562 607.7 143.061C607.454 142.56 607.084 142.182 606.592 141.927C606.1 141.672 605.476 141.545 604.72 141.545C604.035 141.545 603.428 141.681 602.901 141.954C602.382 142.217 601.974 142.595 601.675 143.087C601.385 143.58 601.24 144.16 601.24 144.828H598.801C598.801 143.852 599.047 142.964 599.539 142.165C600.031 141.365 600.721 140.728 601.609 140.253C602.505 139.778 603.542 139.541 604.72 139.541C605.88 139.541 606.896 139.748 607.766 140.161C608.636 140.565 609.312 141.171 609.796 141.98C610.279 142.78 610.521 143.777 610.521 144.973C610.521 145.456 610.407 145.975 610.178 146.528C609.958 147.073 609.611 147.583 609.137 148.058C608.671 148.532 608.064 148.923 607.317 149.231C606.57 149.53 605.674 149.679 604.628 149.679H602.545V148.203ZM602.545 150.207V148.743H604.628C605.85 148.743 606.86 148.888 607.66 149.178C608.46 149.468 609.088 149.855 609.545 150.338C610.011 150.822 610.336 151.354 610.521 151.934C610.714 152.505 610.811 153.076 610.811 153.647C610.811 154.544 610.657 155.339 610.35 156.034C610.051 156.728 609.625 157.317 609.071 157.8C608.526 158.284 607.884 158.648 607.146 158.895C606.408 159.141 605.604 159.264 604.733 159.264C603.898 159.264 603.112 159.145 602.374 158.908C601.644 158.67 600.998 158.328 600.436 157.879C599.873 157.422 599.434 156.864 599.117 156.205C598.801 155.537 598.643 154.777 598.643 153.924H601.082C601.082 154.592 601.227 155.177 601.517 155.678C601.815 156.179 602.237 156.57 602.782 156.851C603.336 157.124 603.986 157.26 604.733 157.26C605.48 157.26 606.122 157.132 606.658 156.877C607.203 156.614 607.621 156.218 607.911 155.691C608.209 155.164 608.359 154.5 608.359 153.7C608.359 152.9 608.192 152.246 607.858 151.736C607.524 151.217 607.049 150.835 606.434 150.589C605.828 150.334 605.111 150.207 604.285 150.207H602.545ZM626.223 147.873V150.8C626.223 152.373 626.082 153.7 625.801 154.781C625.52 155.862 625.115 156.732 624.588 157.392C624.061 158.051 623.423 158.53 622.676 158.829C621.938 159.119 621.103 159.264 620.171 159.264C619.433 159.264 618.752 159.171 618.128 158.987C617.504 158.802 616.941 158.508 616.44 158.104C615.948 157.69 615.526 157.154 615.175 156.495C614.823 155.836 614.555 155.036 614.371 154.096C614.186 153.155 614.094 152.057 614.094 150.8V147.873C614.094 146.3 614.234 144.981 614.516 143.918C614.806 142.854 615.214 142.002 615.742 141.36C616.269 140.71 616.902 140.244 617.64 139.963C618.387 139.682 619.222 139.541 620.145 139.541C620.892 139.541 621.578 139.633 622.202 139.818C622.834 139.994 623.397 140.279 623.889 140.675C624.381 141.062 624.799 141.58 625.142 142.23C625.493 142.872 625.761 143.659 625.946 144.59C626.13 145.522 626.223 146.616 626.223 147.873ZM623.771 151.195V147.464C623.771 146.603 623.718 145.847 623.612 145.197C623.516 144.538 623.371 143.975 623.177 143.509C622.984 143.043 622.738 142.666 622.439 142.375C622.149 142.085 621.811 141.875 621.424 141.743C621.046 141.602 620.62 141.532 620.145 141.532C619.565 141.532 619.051 141.642 618.603 141.861C618.154 142.072 617.776 142.411 617.469 142.876C617.17 143.342 616.941 143.953 616.783 144.709C616.625 145.465 616.546 146.383 616.546 147.464V151.195C616.546 152.057 616.594 152.817 616.691 153.476C616.796 154.135 616.95 154.707 617.152 155.19C617.354 155.665 617.601 156.056 617.891 156.363C618.181 156.671 618.515 156.899 618.893 157.049C619.279 157.189 619.706 157.26 620.171 157.26C620.769 157.26 621.292 157.146 621.74 156.917C622.188 156.688 622.562 156.333 622.861 155.849C623.168 155.357 623.397 154.729 623.546 153.964C623.696 153.19 623.771 152.268 623.771 151.195ZM641.41 147.873V150.8C641.41 152.373 641.27 153.7 640.988 154.781C640.707 155.862 640.303 156.732 639.775 157.392C639.248 158.051 638.611 158.53 637.864 158.829C637.125 159.119 636.291 159.264 635.359 159.264C634.621 159.264 633.939 159.171 633.315 158.987C632.691 158.802 632.129 158.508 631.628 158.104C631.136 157.69 630.714 157.154 630.362 156.495C630.011 155.836 629.743 155.036 629.558 154.096C629.374 153.155 629.281 152.057 629.281 150.8V147.873C629.281 146.3 629.422 144.981 629.703 143.918C629.993 142.854 630.402 142.002 630.929 141.36C631.457 140.71 632.089 140.244 632.828 139.963C633.575 139.682 634.41 139.541 635.333 139.541C636.08 139.541 636.765 139.633 637.389 139.818C638.022 139.994 638.584 140.279 639.077 140.675C639.569 141.062 639.986 141.58 640.329 142.23C640.681 142.872 640.949 143.659 641.133 144.59C641.318 145.522 641.41 146.616 641.41 147.873ZM638.958 151.195V147.464C638.958 146.603 638.905 145.847 638.8 145.197C638.703 144.538 638.558 143.975 638.365 143.509C638.171 143.043 637.925 142.666 637.626 142.375C637.336 142.085 636.998 141.875 636.611 141.743C636.233 141.602 635.807 141.532 635.333 141.532C634.752 141.532 634.238 141.642 633.79 141.861C633.342 142.072 632.964 142.411 632.656 142.876C632.357 143.342 632.129 143.953 631.971 144.709C631.812 145.465 631.733 146.383 631.733 147.464V151.195C631.733 152.057 631.782 152.817 631.878 153.476C631.984 154.135 632.138 154.707 632.34 155.19C632.542 155.665 632.788 156.056 633.078 156.363C633.368 156.671 633.702 156.899 634.08 157.049C634.467 157.189 634.893 157.26 635.359 157.26C635.957 157.26 636.479 157.146 636.928 156.917C637.376 156.688 637.75 156.333 638.048 155.849C638.356 155.357 638.584 154.729 638.734 153.964C638.883 153.19 638.958 152.268 638.958 151.195Z" fill="white"/>
</svg>
