<svg width="300" height="600" viewBox="0 0 300 600" fill="none" xmlns="http://www.w3.org/2000/svg">
<rect width="300" height="600" fill="#00679A"/>
<path d="M106.524 284.022H101.659L101.633 281.979H106.049C106.779 281.979 107.416 281.855 107.961 281.609C108.506 281.363 108.928 281.012 109.227 280.555C109.534 280.089 109.688 279.535 109.688 278.894C109.688 278.19 109.552 277.619 109.279 277.18C109.016 276.731 108.607 276.406 108.053 276.204C107.508 275.993 106.814 275.888 105.97 275.888H102.226V293H99.6816V273.805H105.97C106.955 273.805 107.833 273.906 108.607 274.108C109.38 274.301 110.035 274.609 110.571 275.031C111.116 275.444 111.529 275.971 111.811 276.613C112.092 277.254 112.232 278.023 112.232 278.92C112.232 279.711 112.03 280.427 111.626 281.069C111.222 281.702 110.659 282.22 109.938 282.625C109.227 283.029 108.392 283.288 107.434 283.402L106.524 284.022ZM106.405 293H100.657L102.094 290.93H106.405C107.214 290.93 107.899 290.79 108.462 290.508C109.033 290.227 109.468 289.832 109.767 289.322C110.066 288.803 110.215 288.192 110.215 287.489C110.215 286.777 110.088 286.162 109.833 285.644C109.578 285.125 109.178 284.725 108.633 284.444C108.088 284.163 107.385 284.022 106.524 284.022H102.898L102.925 281.979H107.882L108.422 282.717C109.345 282.796 110.127 283.06 110.769 283.508C111.411 283.947 111.898 284.51 112.232 285.195C112.575 285.881 112.747 286.637 112.747 287.463C112.747 288.658 112.483 289.669 111.956 290.495C111.437 291.312 110.703 291.937 109.754 292.367C108.805 292.789 107.688 293 106.405 293ZM123.61 275.505L117.255 293H114.658L121.975 273.805H123.649L123.61 275.505ZM128.936 293L122.568 275.505L122.529 273.805H124.203L131.546 293H128.936ZM128.606 285.894V287.977H117.822V285.894H128.606ZM148.883 273.805V293H146.325L136.662 278.195V293H134.117V273.805H136.662L146.365 288.649V273.805H148.883ZM168.157 273.805V293H165.6L155.936 278.195V293H153.392V273.805H155.936L165.639 288.649V273.805H168.157ZM184.861 290.93V293H174.696V290.93H184.861ZM175.21 273.805V293H172.666V273.805H175.21ZM183.516 282.058V284.127H174.696V282.058H183.516ZM184.729 273.805V275.888H174.696V273.805H184.729ZM188.012 273.805H194.366C195.808 273.805 197.025 274.024 198.018 274.464C199.02 274.903 199.78 275.554 200.299 276.415C200.826 277.268 201.09 278.318 201.09 279.566C201.09 280.445 200.91 281.249 200.549 281.979C200.198 282.699 199.688 283.314 199.02 283.824C198.361 284.325 197.57 284.699 196.647 284.945L195.935 285.222H189.963L189.937 283.152H194.445C195.359 283.152 196.12 282.994 196.726 282.677C197.333 282.352 197.79 281.917 198.097 281.372C198.405 280.827 198.559 280.225 198.559 279.566C198.559 278.828 198.414 278.182 198.124 277.628C197.833 277.074 197.376 276.648 196.752 276.349C196.137 276.042 195.342 275.888 194.366 275.888H190.556V293H188.012V273.805ZM199.231 293L194.564 284.299L197.214 284.286L201.947 292.842V293H199.231ZM94.3687 314.203H96.1089C96.9614 314.203 97.6646 314.062 98.2183 313.781C98.7808 313.491 99.1982 313.1 99.4707 312.607C99.752 312.106 99.8926 311.544 99.8926 310.92C99.8926 310.182 99.7695 309.562 99.5234 309.061C99.2773 308.56 98.9082 308.182 98.416 307.927C97.9238 307.672 97.2998 307.545 96.5439 307.545C95.8584 307.545 95.252 307.681 94.7246 307.954C94.2061 308.217 93.7974 308.595 93.4985 309.087C93.2085 309.58 93.0635 310.16 93.0635 310.828H90.6245C90.6245 309.852 90.8706 308.964 91.3628 308.165C91.855 307.365 92.5449 306.728 93.4326 306.253C94.3291 305.778 95.3662 305.541 96.5439 305.541C97.7041 305.541 98.7192 305.748 99.5894 306.161C100.459 306.565 101.136 307.171 101.62 307.98C102.103 308.78 102.345 309.777 102.345 310.973C102.345 311.456 102.23 311.975 102.002 312.528C101.782 313.073 101.435 313.583 100.96 314.058C100.495 314.532 99.8882 314.923 99.1411 315.231C98.394 315.53 97.4976 315.679 96.4517 315.679H94.3687V314.203ZM94.3687 316.207V314.743H96.4517C97.6733 314.743 98.6841 314.888 99.4839 315.178C100.284 315.468 100.912 315.855 101.369 316.338C101.835 316.822 102.16 317.354 102.345 317.934C102.538 318.505 102.635 319.076 102.635 319.647C102.635 320.544 102.481 321.339 102.173 322.034C101.875 322.728 101.448 323.317 100.895 323.8C100.35 324.284 99.708 324.648 98.9697 324.895C98.2314 325.141 97.4272 325.264 96.5571 325.264C95.7222 325.264 94.9355 325.145 94.1973 324.908C93.4678 324.67 92.8218 324.328 92.2593 323.879C91.6968 323.422 91.2573 322.864 90.9409 322.205C90.6245 321.537 90.4663 320.777 90.4663 319.924H92.9053C92.9053 320.592 93.0503 321.177 93.3403 321.678C93.6392 322.179 94.061 322.57 94.606 322.851C95.1597 323.124 95.8101 323.26 96.5571 323.26C97.3042 323.26 97.9458 323.132 98.4819 322.877C99.0269 322.614 99.4443 322.218 99.7344 321.691C100.033 321.164 100.183 320.5 100.183 319.7C100.183 318.9 100.016 318.246 99.6816 317.736C99.3477 317.217 98.873 316.835 98.2578 316.589C97.6514 316.334 96.9351 316.207 96.1089 316.207H94.3687ZM118.046 313.873V316.8C118.046 318.373 117.906 319.7 117.625 320.781C117.343 321.862 116.939 322.732 116.412 323.392C115.884 324.051 115.247 324.53 114.5 324.829C113.762 325.119 112.927 325.264 111.995 325.264C111.257 325.264 110.576 325.171 109.952 324.987C109.328 324.802 108.765 324.508 108.264 324.104C107.772 323.69 107.35 323.154 106.999 322.495C106.647 321.836 106.379 321.036 106.194 320.096C106.01 319.155 105.917 318.057 105.917 316.8V313.873C105.917 312.3 106.058 310.981 106.339 309.918C106.629 308.854 107.038 308.002 107.565 307.36C108.093 306.71 108.726 306.244 109.464 305.963C110.211 305.682 111.046 305.541 111.969 305.541C112.716 305.541 113.401 305.633 114.025 305.818C114.658 305.994 115.221 306.279 115.713 306.675C116.205 307.062 116.623 307.58 116.965 308.23C117.317 308.872 117.585 309.659 117.77 310.59C117.954 311.522 118.046 312.616 118.046 313.873ZM115.594 317.195V313.464C115.594 312.603 115.542 311.847 115.436 311.197C115.339 310.538 115.194 309.975 115.001 309.509C114.808 309.043 114.562 308.666 114.263 308.375C113.973 308.085 113.634 307.875 113.248 307.743C112.87 307.602 112.443 307.532 111.969 307.532C111.389 307.532 110.875 307.642 110.426 307.861C109.978 308.072 109.6 308.411 109.292 308.876C108.994 309.342 108.765 309.953 108.607 310.709C108.449 311.465 108.37 312.383 108.37 313.464V317.195C108.37 318.057 108.418 318.817 108.515 319.476C108.62 320.135 108.774 320.707 108.976 321.19C109.178 321.665 109.424 322.056 109.714 322.363C110.004 322.671 110.338 322.899 110.716 323.049C111.103 323.189 111.529 323.26 111.995 323.26C112.593 323.26 113.116 323.146 113.564 322.917C114.012 322.688 114.386 322.333 114.685 321.849C114.992 321.357 115.221 320.729 115.37 319.964C115.52 319.19 115.594 318.268 115.594 317.195ZM133.234 313.873V316.8C133.234 318.373 133.093 319.7 132.812 320.781C132.531 321.862 132.126 322.732 131.599 323.392C131.072 324.051 130.435 324.53 129.688 324.829C128.949 325.119 128.114 325.264 127.183 325.264C126.444 325.264 125.763 325.171 125.139 324.987C124.515 324.802 123.953 324.508 123.452 324.104C122.959 323.69 122.538 323.154 122.186 322.495C121.834 321.836 121.566 321.036 121.382 320.096C121.197 319.155 121.105 318.057 121.105 316.8V313.873C121.105 312.3 121.246 310.981 121.527 309.918C121.817 308.854 122.226 308.002 122.753 307.36C123.28 306.71 123.913 306.244 124.651 305.963C125.398 305.682 126.233 305.541 127.156 305.541C127.903 305.541 128.589 305.633 129.213 305.818C129.846 305.994 130.408 306.279 130.9 306.675C131.393 307.062 131.81 307.58 132.153 308.23C132.504 308.872 132.772 309.659 132.957 310.59C133.142 311.522 133.234 312.616 133.234 313.873ZM130.782 317.195V313.464C130.782 312.603 130.729 311.847 130.624 311.197C130.527 310.538 130.382 309.975 130.188 309.509C129.995 309.043 129.749 308.666 129.45 308.375C129.16 308.085 128.822 307.875 128.435 307.743C128.057 307.602 127.631 307.532 127.156 307.532C126.576 307.532 126.062 307.642 125.614 307.861C125.166 308.072 124.788 308.411 124.48 308.876C124.181 309.342 123.953 309.953 123.794 310.709C123.636 311.465 123.557 312.383 123.557 313.464V317.195C123.557 318.057 123.605 318.817 123.702 319.476C123.808 320.135 123.961 320.707 124.164 321.19C124.366 321.665 124.612 322.056 124.902 322.363C125.192 322.671 125.526 322.899 125.904 323.049C126.291 323.189 126.717 323.26 127.183 323.26C127.78 323.26 128.303 323.146 128.751 322.917C129.2 322.688 129.573 322.333 129.872 321.849C130.18 321.357 130.408 320.729 130.558 319.964C130.707 319.19 130.782 318.268 130.782 317.195ZM145.35 305.805L149.964 313.161L154.578 305.805H157.544L151.48 315.31L157.689 325H154.697L149.964 317.499L145.231 325H142.238L148.448 315.31L142.383 305.805H145.35ZM176.054 305.778H176.265V307.848H176.054C174.762 307.848 173.681 308.059 172.811 308.481C171.941 308.894 171.251 309.452 170.741 310.155C170.231 310.85 169.862 311.632 169.634 312.502C169.414 313.372 169.304 314.255 169.304 315.152V317.973C169.304 318.826 169.405 319.582 169.607 320.241C169.81 320.891 170.086 321.44 170.438 321.889C170.79 322.337 171.185 322.675 171.625 322.904C172.073 323.132 172.539 323.247 173.022 323.247C173.584 323.247 174.085 323.141 174.525 322.93C174.964 322.71 175.333 322.407 175.632 322.021C175.94 321.625 176.173 321.159 176.331 320.623C176.489 320.087 176.568 319.498 176.568 318.856C176.568 318.285 176.498 317.736 176.357 317.208C176.217 316.672 176.001 316.198 175.711 315.785C175.421 315.363 175.057 315.033 174.617 314.796C174.187 314.55 173.672 314.427 173.075 314.427C172.398 314.427 171.765 314.594 171.176 314.928C170.596 315.253 170.117 315.684 169.739 316.22C169.37 316.747 169.159 317.323 169.106 317.947L167.814 317.934C167.938 316.949 168.166 316.11 168.5 315.416C168.843 314.712 169.265 314.141 169.766 313.702C170.275 313.253 170.842 312.928 171.466 312.726C172.099 312.515 172.767 312.41 173.47 312.41C174.428 312.41 175.254 312.59 175.949 312.95C176.643 313.311 177.214 313.794 177.663 314.4C178.111 314.998 178.44 315.675 178.651 316.431C178.871 317.178 178.981 317.947 178.981 318.738C178.981 319.643 178.854 320.491 178.599 321.282C178.344 322.073 177.961 322.768 177.452 323.365C176.951 323.963 176.331 324.429 175.593 324.763C174.854 325.097 173.998 325.264 173.022 325.264C171.985 325.264 171.08 325.053 170.306 324.631C169.533 324.2 168.891 323.629 168.381 322.917C167.872 322.205 167.489 321.414 167.234 320.544C166.979 319.674 166.852 318.791 166.852 317.894V316.747C166.852 315.394 166.988 314.066 167.261 312.766C167.533 311.465 168.003 310.287 168.671 309.232C169.348 308.178 170.284 307.338 171.479 306.714C172.675 306.09 174.2 305.778 176.054 305.778ZM193.931 313.873V316.8C193.931 318.373 193.791 319.7 193.509 320.781C193.228 321.862 192.824 322.732 192.296 323.392C191.769 324.051 191.132 324.53 190.385 324.829C189.646 325.119 188.812 325.264 187.88 325.264C187.142 325.264 186.46 325.171 185.836 324.987C185.212 324.802 184.65 324.508 184.149 324.104C183.657 323.69 183.235 323.154 182.883 322.495C182.532 321.836 182.264 321.036 182.079 320.096C181.895 319.155 181.802 318.057 181.802 316.8V313.873C181.802 312.3 181.943 310.981 182.224 309.918C182.514 308.854 182.923 308.002 183.45 307.36C183.978 306.71 184.61 306.244 185.349 305.963C186.096 305.682 186.931 305.541 187.854 305.541C188.601 305.541 189.286 305.633 189.91 305.818C190.543 305.994 191.105 306.279 191.598 306.675C192.09 307.062 192.507 307.58 192.85 308.23C193.202 308.872 193.47 309.659 193.654 310.59C193.839 311.522 193.931 312.616 193.931 313.873ZM191.479 317.195V313.464C191.479 312.603 191.426 311.847 191.321 311.197C191.224 310.538 191.079 309.975 190.886 309.509C190.692 309.043 190.446 308.666 190.147 308.375C189.857 308.085 189.519 307.875 189.132 307.743C188.754 307.602 188.328 307.532 187.854 307.532C187.273 307.532 186.759 307.642 186.311 307.861C185.863 308.072 185.485 308.411 185.177 308.876C184.878 309.342 184.65 309.953 184.492 310.709C184.333 311.465 184.254 312.383 184.254 313.464V317.195C184.254 318.057 184.303 318.817 184.399 319.476C184.505 320.135 184.659 320.707 184.861 321.19C185.063 321.665 185.309 322.056 185.599 322.363C185.889 322.671 186.223 322.899 186.601 323.049C186.988 323.189 187.414 323.26 187.88 323.26C188.478 323.26 189 323.146 189.449 322.917C189.897 322.688 190.271 322.333 190.569 321.849C190.877 321.357 191.105 320.729 191.255 319.964C191.404 319.19 191.479 318.268 191.479 317.195ZM209.119 313.873V316.8C209.119 318.373 208.978 319.7 208.697 320.781C208.416 321.862 208.011 322.732 207.484 323.392C206.957 324.051 206.319 324.53 205.572 324.829C204.834 325.119 203.999 325.264 203.067 325.264C202.329 325.264 201.648 325.171 201.024 324.987C200.4 324.802 199.837 324.508 199.336 324.104C198.844 323.69 198.422 323.154 198.071 322.495C197.719 321.836 197.451 321.036 197.267 320.096C197.082 319.155 196.99 318.057 196.99 316.8V313.873C196.99 312.3 197.13 310.981 197.412 309.918C197.702 308.854 198.11 308.002 198.638 307.36C199.165 306.71 199.798 306.244 200.536 305.963C201.283 305.682 202.118 305.541 203.041 305.541C203.788 305.541 204.474 305.633 205.098 305.818C205.73 305.994 206.293 306.279 206.785 306.675C207.277 307.062 207.695 307.58 208.038 308.23C208.389 308.872 208.657 309.659 208.842 310.59C209.026 311.522 209.119 312.616 209.119 313.873ZM206.667 317.195V313.464C206.667 312.603 206.614 311.847 206.508 311.197C206.412 310.538 206.267 309.975 206.073 309.509C205.88 309.043 205.634 308.666 205.335 308.375C205.045 308.085 204.707 307.875 204.32 307.743C203.942 307.602 203.516 307.532 203.041 307.532C202.461 307.532 201.947 307.642 201.499 307.861C201.05 308.072 200.672 308.411 200.365 308.876C200.066 309.342 199.837 309.953 199.679 310.709C199.521 311.465 199.442 312.383 199.442 313.464V317.195C199.442 318.057 199.49 318.817 199.587 319.476C199.692 320.135 199.846 320.707 200.048 321.19C200.25 321.665 200.497 322.056 200.787 322.363C201.077 322.671 201.411 322.899 201.789 323.049C202.175 323.189 202.602 323.26 203.067 323.26C203.665 323.26 204.188 323.146 204.636 322.917C205.084 322.688 205.458 322.333 205.757 321.849C206.064 321.357 206.293 320.729 206.442 319.964C206.592 319.19 206.667 318.268 206.667 317.195Z" fill="white"/>
</svg>
