<svg width="970" height="90" viewBox="0 0 970 90" fill="none" xmlns="http://www.w3.org/2000/svg">
<path opacity="0.8" d="M0 0H970V90H0V0Z" fill="#00679A"/>
<path d="M391.805 47.022H386.94L386.914 44.9785H391.331C392.06 44.9785 392.697 44.8555 393.242 44.6094C393.787 44.3633 394.209 44.0117 394.508 43.5547C394.815 43.0889 394.969 42.5352 394.969 41.8936C394.969 41.1904 394.833 40.6191 394.561 40.1797C394.297 39.7314 393.888 39.4062 393.334 39.2041C392.79 38.9932 392.095 38.8877 391.251 38.8877H387.507V56H384.963V36.8047H391.251C392.236 36.8047 393.115 36.9058 393.888 37.1079C394.662 37.3013 395.316 37.6089 395.853 38.0308C396.397 38.4438 396.811 38.9712 397.092 39.6128C397.373 40.2544 397.514 41.0234 397.514 41.9199C397.514 42.7109 397.312 43.4272 396.907 44.0688C396.503 44.7017 395.94 45.2202 395.22 45.6245C394.508 46.0288 393.673 46.2881 392.715 46.4023L391.805 47.022ZM391.687 56H385.938L387.375 53.9302H391.687C392.495 53.9302 393.181 53.7896 393.743 53.5083C394.314 53.2271 394.75 52.8315 395.048 52.3218C395.347 51.8032 395.497 51.1924 395.497 50.4893C395.497 49.7773 395.369 49.1621 395.114 48.6436C394.859 48.125 394.459 47.7251 393.915 47.4438C393.37 47.1626 392.667 47.022 391.805 47.022H388.18L388.206 44.9785H393.163L393.704 45.7168C394.626 45.7959 395.409 46.0596 396.05 46.5078C396.692 46.9473 397.18 47.5098 397.514 48.1953C397.856 48.8809 398.028 49.6367 398.028 50.4629C398.028 51.6582 397.764 52.6689 397.237 53.4951C396.718 54.3125 395.984 54.9365 395.035 55.3672C394.086 55.7891 392.97 56 391.687 56ZM408.891 38.5054L402.537 56H399.939L407.256 36.8047H408.931L408.891 38.5054ZM414.217 56L407.85 38.5054L407.81 36.8047H409.484L416.828 56H414.217ZM413.888 48.894V50.9771H403.104V48.894H413.888ZM434.164 36.8047V56H431.606L421.943 41.1948V56H419.398V36.8047H421.943L431.646 51.6494V36.8047H434.164ZM453.438 36.8047V56H450.881L441.217 41.1948V56H438.673V36.8047H441.217L450.92 51.6494V36.8047H453.438ZM470.142 53.9302V56H459.978V53.9302H470.142ZM460.492 36.8047V56H457.947V36.8047H460.492ZM468.797 45.0576V47.1274H459.978V45.0576H468.797ZM470.01 36.8047V38.8877H459.978V36.8047H470.01ZM473.293 36.8047H479.647C481.089 36.8047 482.306 37.0244 483.299 37.4639C484.301 37.9033 485.062 38.5537 485.58 39.415C486.107 40.2676 486.371 41.3179 486.371 42.5659C486.371 43.4448 486.191 44.249 485.831 44.9785C485.479 45.6992 484.969 46.3145 484.301 46.8242C483.642 47.3252 482.851 47.6987 481.928 47.9448L481.216 48.2217H475.244L475.218 46.1519H479.727C480.641 46.1519 481.401 45.9937 482.007 45.6772C482.614 45.3521 483.071 44.917 483.378 44.3721C483.686 43.8271 483.84 43.2251 483.84 42.5659C483.84 41.8276 483.695 41.1816 483.405 40.6279C483.115 40.0742 482.658 39.6479 482.034 39.3491C481.418 39.0415 480.623 38.8877 479.647 38.8877H475.837V56H473.293V36.8047ZM484.512 56L479.845 47.2988L482.495 47.2856L487.228 55.8418V56H484.512ZM498.421 53.9565H498.671C500.078 53.9565 501.22 53.7588 502.099 53.3633C502.978 52.9678 503.655 52.436 504.129 51.7681C504.604 51.1001 504.929 50.3486 505.105 49.5137C505.281 48.6699 505.369 47.8042 505.369 46.9165V43.9766C505.369 43.1064 505.268 42.333 505.065 41.6562C504.872 40.9795 504.6 40.4126 504.248 39.9556C503.905 39.4985 503.514 39.1514 503.075 38.9141C502.635 38.6768 502.169 38.5581 501.677 38.5581C501.115 38.5581 500.609 38.6724 500.161 38.9009C499.722 39.1206 499.348 39.4326 499.041 39.8369C498.742 40.2412 498.513 40.7158 498.355 41.2607C498.197 41.8057 498.118 42.3989 498.118 43.0405C498.118 43.6118 498.188 44.1655 498.329 44.7017C498.469 45.2378 498.685 45.7212 498.975 46.1519C499.265 46.5825 499.625 46.9253 500.056 47.1802C500.495 47.4263 501.009 47.5493 501.598 47.5493C502.143 47.5493 502.653 47.4438 503.127 47.2329C503.611 47.0132 504.037 46.7188 504.406 46.3496C504.784 45.9717 505.083 45.5454 505.303 45.0708C505.531 44.5962 505.663 44.0996 505.698 43.5811H506.858C506.858 44.3105 506.713 45.0312 506.423 45.7432C506.142 46.4463 505.747 47.0879 505.237 47.668C504.727 48.248 504.129 48.7139 503.444 49.0654C502.758 49.4082 502.011 49.5796 501.203 49.5796C500.253 49.5796 499.432 49.395 498.737 49.0259C498.043 48.6567 497.472 48.1646 497.023 47.5493C496.584 46.9341 496.254 46.2485 496.035 45.4927C495.824 44.728 495.718 43.9546 495.718 43.1724C495.718 42.2583 495.846 41.4014 496.101 40.6016C496.355 39.8018 496.733 39.0986 497.234 38.4922C497.735 37.877 498.355 37.3979 499.093 37.0552C499.84 36.7124 500.702 36.541 501.677 36.541C502.776 36.541 503.712 36.7607 504.485 37.2002C505.259 37.6396 505.887 38.2285 506.371 38.9668C506.863 39.7051 507.223 40.5356 507.452 41.4585C507.68 42.3813 507.794 43.3306 507.794 44.3062V45.1895C507.794 46.1826 507.729 47.1934 507.597 48.2217C507.474 49.2412 507.232 50.2168 506.872 51.1484C506.52 52.0801 506.006 52.915 505.329 53.6533C504.652 54.3828 503.769 54.9629 502.679 55.3936C501.598 55.8154 500.262 56.0264 498.671 56.0264H498.421V53.9565ZM523.588 36.8047V38.1758L515.639 56H513.068L521.004 38.8086H510.616V36.8047H523.588ZM538.42 44.873V47.7998C538.42 49.373 538.279 50.7002 537.998 51.7812C537.717 52.8623 537.312 53.7324 536.785 54.3916C536.258 55.0508 535.621 55.5298 534.874 55.8286C534.135 56.1187 533.3 56.2637 532.369 56.2637C531.63 56.2637 530.949 56.1714 530.325 55.9868C529.701 55.8022 529.139 55.5078 528.638 55.1035C528.146 54.6904 527.724 54.1543 527.372 53.4951C527.021 52.8359 526.752 52.0361 526.568 51.0957C526.383 50.1553 526.291 49.0566 526.291 47.7998V44.873C526.291 43.2998 526.432 41.9814 526.713 40.918C527.003 39.8545 527.412 39.002 527.939 38.3604C528.466 37.71 529.099 37.2441 529.837 36.9629C530.584 36.6816 531.419 36.541 532.342 36.541C533.089 36.541 533.775 36.6333 534.399 36.8179C535.032 36.9937 535.594 37.2793 536.086 37.6748C536.579 38.0615 536.996 38.5801 537.339 39.2305C537.69 39.8721 537.958 40.6587 538.143 41.5903C538.328 42.522 538.42 43.6162 538.42 44.873ZM535.968 48.1953V44.4644C535.968 43.603 535.915 42.8472 535.81 42.1968C535.713 41.5376 535.568 40.9751 535.375 40.5093C535.181 40.0435 534.935 39.6655 534.636 39.3755C534.346 39.0854 534.008 38.8745 533.621 38.7427C533.243 38.6021 532.817 38.5317 532.342 38.5317C531.762 38.5317 531.248 38.6416 530.8 38.8613C530.352 39.0723 529.974 39.4106 529.666 39.8765C529.367 40.3423 529.139 40.9531 528.98 41.709C528.822 42.4648 528.743 43.3833 528.743 44.4644V48.1953C528.743 49.0566 528.792 49.8169 528.888 50.4761C528.994 51.1353 529.147 51.7065 529.35 52.1899C529.552 52.6646 529.798 53.0557 530.088 53.3633C530.378 53.6709 530.712 53.8994 531.09 54.0488C531.477 54.1895 531.903 54.2598 532.369 54.2598C532.966 54.2598 533.489 54.1455 533.938 53.917C534.386 53.6885 534.759 53.3325 535.058 52.8491C535.366 52.3569 535.594 51.7285 535.744 50.9639C535.893 50.1904 535.968 49.2676 535.968 48.1953ZM543.838 36.8047L548.453 44.1611L553.067 36.8047H556.033L549.969 46.3101L556.178 56H553.186L548.453 48.4985L543.72 56H540.727L546.937 46.3101L540.872 36.8047H543.838ZM560.911 53.9565H561.162C562.568 53.9565 563.71 53.7588 564.589 53.3633C565.468 52.9678 566.145 52.436 566.62 51.7681C567.094 51.1001 567.419 50.3486 567.595 49.5137C567.771 48.6699 567.859 47.8042 567.859 46.9165V43.9766C567.859 43.1064 567.758 42.333 567.556 41.6562C567.362 40.9795 567.09 40.4126 566.738 39.9556C566.396 39.4985 566.004 39.1514 565.565 38.9141C565.125 38.6768 564.66 38.5581 564.167 38.5581C563.605 38.5581 563.1 38.6724 562.651 38.9009C562.212 39.1206 561.838 39.4326 561.531 39.8369C561.232 40.2412 561.003 40.7158 560.845 41.2607C560.687 41.8057 560.608 42.3989 560.608 43.0405C560.608 43.6118 560.678 44.1655 560.819 44.7017C560.959 45.2378 561.175 45.7212 561.465 46.1519C561.755 46.5825 562.115 46.9253 562.546 47.1802C562.985 47.4263 563.5 47.5493 564.088 47.5493C564.633 47.5493 565.143 47.4438 565.618 47.2329C566.101 47.0132 566.527 46.7188 566.896 46.3496C567.274 45.9717 567.573 45.5454 567.793 45.0708C568.021 44.5962 568.153 44.0996 568.188 43.5811H569.349C569.349 44.3105 569.204 45.0312 568.914 45.7432C568.632 46.4463 568.237 47.0879 567.727 47.668C567.217 48.248 566.62 48.7139 565.934 49.0654C565.249 49.4082 564.501 49.5796 563.693 49.5796C562.744 49.5796 561.922 49.395 561.228 49.0259C560.533 48.6567 559.962 48.1646 559.514 47.5493C559.074 46.9341 558.745 46.2485 558.525 45.4927C558.314 44.728 558.208 43.9546 558.208 43.1724C558.208 42.2583 558.336 41.4014 558.591 40.6016C558.846 39.8018 559.224 39.0986 559.725 38.4922C560.226 37.877 560.845 37.3979 561.583 37.0552C562.331 36.7124 563.192 36.541 564.167 36.541C565.266 36.541 566.202 36.7607 566.976 37.2002C567.749 37.6396 568.377 38.2285 568.861 38.9668C569.353 39.7051 569.713 40.5356 569.942 41.4585C570.17 42.3813 570.285 43.3306 570.285 44.3062V45.1895C570.285 46.1826 570.219 47.1934 570.087 48.2217C569.964 49.2412 569.722 50.2168 569.362 51.1484C569.01 52.0801 568.496 52.915 567.819 53.6533C567.143 54.3828 566.259 54.9629 565.169 55.3936C564.088 55.8154 562.752 56.0264 561.162 56.0264H560.911V53.9565ZM585.723 44.873V47.7998C585.723 49.373 585.582 50.7002 585.301 51.7812C585.02 52.8623 584.615 53.7324 584.088 54.3916C583.561 55.0508 582.923 55.5298 582.176 55.8286C581.438 56.1187 580.603 56.2637 579.671 56.2637C578.933 56.2637 578.252 56.1714 577.628 55.9868C577.004 55.8022 576.441 55.5078 575.94 55.1035C575.448 54.6904 575.026 54.1543 574.675 53.4951C574.323 52.8359 574.055 52.0361 573.871 51.0957C573.686 50.1553 573.594 49.0566 573.594 47.7998V44.873C573.594 43.2998 573.734 41.9814 574.016 40.918C574.306 39.8545 574.714 39.002 575.242 38.3604C575.769 37.71 576.402 37.2441 577.14 36.9629C577.887 36.6816 578.722 36.541 579.645 36.541C580.392 36.541 581.078 36.6333 581.702 36.8179C582.334 36.9937 582.897 37.2793 583.389 37.6748C583.881 38.0615 584.299 38.5801 584.642 39.2305C584.993 39.8721 585.261 40.6587 585.446 41.5903C585.63 42.522 585.723 43.6162 585.723 44.873ZM583.271 48.1953V44.4644C583.271 43.603 583.218 42.8472 583.112 42.1968C583.016 41.5376 582.871 40.9751 582.677 40.5093C582.484 40.0435 582.238 39.6655 581.939 39.3755C581.649 39.0854 581.311 38.8745 580.924 38.7427C580.546 38.6021 580.12 38.5317 579.645 38.5317C579.065 38.5317 578.551 38.6416 578.103 38.8613C577.654 39.0723 577.276 39.4106 576.969 39.8765C576.67 40.3423 576.441 40.9531 576.283 41.709C576.125 42.4648 576.046 43.3833 576.046 44.4644V48.1953C576.046 49.0566 576.094 49.8169 576.191 50.4761C576.296 51.1353 576.45 51.7065 576.652 52.1899C576.854 52.6646 577.101 53.0557 577.391 53.3633C577.681 53.6709 578.015 53.8994 578.393 54.0488C578.779 54.1895 579.206 54.2598 579.671 54.2598C580.269 54.2598 580.792 54.1455 581.24 53.917C581.688 53.6885 582.062 53.3325 582.361 52.8491C582.668 52.3569 582.897 51.7285 583.046 50.9639C583.196 50.1904 583.271 49.2676 583.271 48.1953Z" fill="white"/>
</svg>
