<svg aria-hidden="true" style="position: absolute; width: 0; height: 0; overflow: hidden;" version="1.1" xmlns="http://www.w3.org/2000/svg" xmlns:xlink="http://www.w3.org/1999/xlink">
<defs>
<symbol id="icon-bi_briefcase-fill" viewBox="0 0 32 32">
<path fill="#00679a" style="fill: var(--color1, #00679a)" d="M13.152 5.333c-0.723 0-1.417 0.263-1.928 0.732s-0.799 1.105-0.799 1.768v0.833h-6.364c-0.723 0-1.417 0.263-1.928 0.732s-0.799 1.105-0.799 1.768v2.307l13.844 3.383c0.46 0.112 0.944 0.112 1.404 0l13.844-3.383v-2.307c0-0.663-0.287-1.299-0.799-1.768s-1.205-0.732-1.929-0.732h-6.364v-0.833c0-0.663-0.287-1.299-0.799-1.768s-1.205-0.732-1.929-0.732h-5.454zM13.152 7h5.454c0.241 0 0.472 0.088 0.643 0.244s0.266 0.368 0.266 0.589v0.833h-7.273v-0.833c0-0.221 0.096-0.433 0.266-0.589s0.402-0.244 0.643-0.244z"></path>
<path fill="#00679a" style="fill: var(--color1, #00679a)" d="M1.333 24.5c0 0.663 0.287 1.299 0.799 1.768s1.205 0.732 1.928 0.732h23.636c0.723 0 1.417-0.263 1.929-0.732s0.799-1.105 0.799-1.768v-9.417l-14.311 3.495c-0.154 0.038-0.315 0.038-0.469 0l-14.311-3.495v9.417z"></path>
</symbol>
<symbol id="icon-bxs_car" viewBox="0 0 32 32">
<path fill="#00679a" style="fill: var(--color1, #00679a)" d="M30.117 12.104l-2.098-6.293c-0.304-0.916-0.89-1.713-1.673-2.278s-1.724-0.868-2.69-0.867h-13.981c-0.965-0.001-1.907 0.303-2.69 0.867s-1.368 1.362-1.673 2.278l-2.098 6.293c-0.558 0.233-1.034 0.626-1.369 1.13s-0.514 1.095-0.514 1.699v7.667c0 1.132 0.619 2.11 1.533 2.642v3.491c0 0.407 0.162 0.797 0.449 1.084s0.678 0.449 1.084 0.449h1.533c0.407 0 0.797-0.162 1.084-0.449s0.449-0.678 0.449-1.084v-3.067h18.4v3.067c0 0.407 0.162 0.797 0.449 1.084s0.678 0.449 1.084 0.449h1.533c0.407 0 0.797-0.162 1.084-0.449s0.449-0.678 0.449-1.084v-3.491c0.465-0.267 0.852-0.651 1.121-1.115s0.411-0.99 0.412-1.527v-7.667c0-0.605-0.179-1.196-0.514-1.699s-0.811-0.896-1.369-1.13zM9.676 5.733h13.979c0.661 0 1.247 0.42 1.455 1.049l1.696 5.085h-20.28l1.694-5.085c0.102-0.305 0.297-0.571 0.558-0.759s0.575-0.29 0.897-0.289zM6.7 21.067c-0.302-0-0.601-0.060-0.88-0.175s-0.533-0.285-0.746-0.499c-0.214-0.214-0.383-0.467-0.498-0.747s-0.175-0.578-0.175-0.88c0-0.302 0.060-0.601 0.175-0.881s0.285-0.533 0.499-0.746c0.214-0.214 0.467-0.383 0.747-0.499s0.578-0.175 0.881-0.175c0.61 0 1.195 0.243 1.627 0.674s0.674 1.017 0.673 1.627c-0 0.61-0.243 1.195-0.674 1.627s-1.017 0.674-1.627 0.673zM26.633 21.067c-0.302-0-0.601-0.060-0.88-0.175s-0.533-0.285-0.746-0.499c-0.214-0.214-0.383-0.467-0.499-0.747s-0.175-0.578-0.175-0.88c0-0.302 0.060-0.601 0.175-0.881s0.285-0.533 0.499-0.746c0.214-0.214 0.467-0.383 0.747-0.499s0.578-0.175 0.88-0.175c0.61 0 1.195 0.243 1.627 0.674s0.674 1.017 0.673 1.627c-0 0.61-0.243 1.195-0.674 1.627s-1.017 0.674-1.627 0.673z"></path>
</symbol>
<symbol id="icon-fa-solid_baby-carriage" viewBox="0 0 32 32">
<path fill="#00679a" style="fill: var(--color1, #00679a)" d="M9.050 1.063c-0.706-1.113-2.325-1.425-3.375-0.588-3.469 2.769-5.675 6.9-5.675 11.525h16l-6.95-10.938zM31 6h-3c-2.206 0-4 1.794-4 4v4h-24c0 3.163 1.438 6.025 3.769 8.169-2.163 0.556-3.769 2.5-3.769 4.831 0 2.763 2.237 5 5 5s5-2.237 5-5c0-0.556-0.113-1.075-0.275-1.575 1.35 0.369 2.787 0.575 4.275 0.575s2.931-0.206 4.275-0.575c-0.169 0.5-0.275 1.019-0.275 1.575 0 2.763 2.237 5 5 5s5-2.237 5-5c0-2.331-1.606-4.275-3.769-4.831 2.331-2.144 3.769-5.006 3.769-8.169v-4h3c0.55 0 1-0.45 1-1v-2c0-0.55-0.45-1-1-1zM5 29c-1.1 0-2-0.9-2-2s0.9-2 2-2c1.1 0 2 0.9 2 2s-0.9 2-2 2zM25 27c0 1.1-0.9 2-2 2s-2-0.9-2-2c0-1.1 0.9-2 2-2s2 0.9 2 2z"></path>
</symbol>
<symbol id="icon-fa6-solid_gift" viewBox="0 0 32 32">
<path fill="#00679a" style="fill: var(--color1, #00679a)" d="M10.042 0h0.126c1.828 0 3.524 0.969 4.452 2.547l1.381 2.35 1.381-2.35c0.928-1.578 2.624-2.547 4.452-2.547h0.126c2.784 0 5.042 2.257 5.042 5.042 0 0.825-0.201 1.553-0.55 2.292h2.383c1.014 0 1.833 0.819 1.833 1.833v3.667c0 1.014-0.819 1.833-1.833 1.833h-25.667c-1.012 0-1.833-0.819-1.833-1.833v-3.667c0-1.014 0.821-1.833 1.833-1.833h2.383c-0.352-0.739-0.55-1.467-0.55-2.292 0-2.784 2.257-5.042 5.042-5.042zM12.247 3.941c-0.435-0.737-1.226-1.191-2.080-1.191h-0.126c-1.266 0-2.292 1.026-2.292 2.292s1.026 2.292 2.292 2.292h4.2l-1.994-3.393zM21.958 2.75h-0.126c-0.854 0-1.644 0.453-2.080 1.191l-1.994 3.393h4.2c1.266 0 2.292-1.026 2.292-2.292s-1.025-2.292-2.292-2.292zM3.167 16.5h11v12.833h-8.25c-1.519 0-2.75-1.232-2.75-2.75v-10.083zM17.833 29.333v-12.833h11v10.083c0 1.518-1.232 2.75-2.75 2.75h-8.25z"></path>
</symbol>
<symbol id="icon-healthicons_construction-worker" viewBox="0 0 32 32">
<path fill="#00679a" style="fill: var(--color1, #00679a)" d="M21.767 9.904c0.225-0.058 0.464-0.026 0.666 0.090s0.35 0.306 0.413 0.53c0.295 1.057 0.342 2.167 0.136 3.245s-0.658 2.093-1.321 2.967c-0.663 0.874-1.52 1.583-2.503 2.070s-2.065 0.742-3.162 0.742c-1.097 0-2.179-0.254-3.162-0.742s-1.839-1.197-2.502-2.070c-0.663-0.874-1.115-1.89-1.321-2.967s-0.159-2.188 0.136-3.245c0.063-0.224 0.211-0.414 0.412-0.53s0.441-0.148 0.666-0.090c3.308 0.853 8.233 0.853 11.541 0zM10.699 11.835c-0.085 0.746-0.011 1.502 0.216 2.218s0.604 1.376 1.104 1.936c0.5 0.561 1.113 1.009 1.799 1.316s1.428 0.466 2.18 0.466 1.494-0.159 2.18-0.466c0.686-0.307 1.299-0.755 1.799-1.316s0.877-1.22 1.104-1.936c0.228-0.716 0.301-1.472 0.216-2.218-3.215 0.649-7.384 0.649-10.598 0z"></path>
<path fill="#00679a" style="fill: var(--color1, #00679a)" d="M11.556 19.991c-5.322 0.929-11.556 3.301-11.556 6.676v5.333h32v-5.333c0-3.375-6.234-5.747-11.556-6.676v4.009h-8.889v-4.009zM6.222 32v-8h1.778v8h-1.778zM24.889 24v8h1.778v-8h-1.778zM16.889 0.052v3.931c0 0.236-0.094 0.462-0.26 0.629s-0.393 0.26-0.629 0.26c-0.236 0-0.462-0.094-0.629-0.26s-0.26-0.393-0.26-0.629v-3.982c-0.918 0.049-1.82 0.256-2.667 0.613v5.147c0 0.236-0.094 0.462-0.26 0.629s-0.393 0.26-0.629 0.26c-0.236 0-0.462-0.094-0.629-0.26s-0.26-0.393-0.26-0.629v-4.040c-1.218 1.047-1.92 2.405-2.143 3.596-0.008 0.041-0.015 0.083-0.021 0.124l-0.018 0.018c-0.079 0.559-0.036 1.020 0.078 1.336 0.073 0.22 0.057 0.46-0.045 0.669s-0.281 0.369-0.499 0.447c-0.218 0.078-0.459 0.068-0.67-0.028s-0.376-0.271-0.46-0.488c-0.015-0.041-0.029-0.083-0.043-0.124-5.162 6.74 23.496 6.736 18.297-0.012-0.013 0.044-0.028 0.087-0.043 0.13-0.082 0.217-0.246 0.394-0.456 0.492s-0.451 0.11-0.67 0.033c-0.219-0.077-0.399-0.236-0.502-0.444s-0.121-0.448-0.049-0.669c0.128-0.368 0.165-0.827 0.096-1.333-0.005-0.004-0.011-0.008-0.016-0.012-0.192-1.202-0.923-2.531-2.171-3.578v3.883c0 0.236-0.094 0.462-0.26 0.629s-0.393 0.26-0.629 0.26-0.462-0.094-0.629-0.26c-0.167-0.167-0.26-0.393-0.26-0.629v-4.994c-0.347-0.156-0.704-0.288-1.069-0.396-0.522-0.152-1.057-0.259-1.597-0.32v0.001z"></path>
</symbol>
<symbol id="icon-house-1" viewBox="0 0 32 32">
<path fill="#00679a" style="fill: var(--color1, #00679a)" d="M14.058 0.094c-2.237 0.35-4.169 1.756-5.187 3.781-0.256 0.519-0.556 1.356-0.569 1.612-0.006 0.112 0.213 0.544 0.675 1.3 0.756 1.256 1.531 2.769 2.012 3.956 0.331 0.8 0.844 2.319 0.912 2.719 0.025 0.125 0.063 0.225 0.088 0.225 0.019 0 1.306-1.125 2.85-2.506 1.55-1.375 2.931-2.581 3.069-2.681 0.838-0.588 2.088-0.65 2.95-0.15 0.15 0.088 0.475 0.338 0.731 0.563 0.25 0.219 0.475 0.4 0.494 0.4 0.063 0 0.044-2.331-0.025-2.994-0.087-0.85-0.306-1.588-0.719-2.413-0.406-0.819-0.787-1.344-1.45-1.975-1.569-1.494-3.706-2.169-5.831-1.837z"></path>
<path fill="#00679a" style="fill: var(--color1, #00679a)" d="M4.789 5.425c-0.463 0.313-1.981 2.769-2.925 4.731-1.344 2.8-1.875 4.944-1.788 7.25 0.087 2.181 0.506 4 1.294 5.625 0.65 1.35 1.5 2.306 2.438 2.763l0.494 0.237 0.006 2.044v2.050h-1.781c-1.969 0-2.087 0.019-2.344 0.369-0.331 0.469-0.169 1.131 0.338 1.375l0.263 0.131h30.425l0.262-0.131c0.506-0.244 0.669-0.906 0.338-1.375-0.219-0.3-0.456-0.369-1.313-0.369h-0.75v-4.438c0-2.444 0.019-4.437 0.037-4.437s0.181 0.125 0.356 0.275c0.425 0.356 0.544 0.412 0.869 0.412 0.475 0 0.844-0.325 0.906-0.794 0.062-0.456-0.063-0.606-1.594-1.963l-1.437-1.275-0.006-2.531c-0.006-2.281-0.019-2.55-0.119-2.75-0.313-0.625-1.231-0.675-1.619-0.081-0.1 0.15-0.119 0.369-0.144 1.906l-0.031 1.737-3-2.669c-4.213-3.744-4.013-3.575-4.256-3.619-0.513-0.094-0.288-0.275-6.581 5.319-5.263 4.675-5.944 5.306-6.013 5.525-0.188 0.625 0.237 1.194 0.881 1.194 0.312 0 0.431-0.062 0.856-0.412 0.175-0.15 0.338-0.275 0.356-0.275s0.037 1.994 0.037 4.437v4.438h-3.063v-4.069l0.344-0.15c0.188-0.087 0.456-0.231 0.594-0.319l0.25-0.169v-1.638l-0.325-0.119c-1.744-0.619-2.413-2.819-1.313-4.281 0.125-0.162 1.175-1.137 2.325-2.162 1.15-1.019 2.144-1.906 2.2-1.963 0.1-0.094 0.1-0.137-0.044-0.787-0.338-1.556-0.844-2.906-1.794-4.813-0.787-1.563-2.1-3.694-2.544-4.119-0.25-0.244-0.813-0.3-1.087-0.112zM16.852 21.387c0.106 0.063 0.256 0.206 0.325 0.319 0.131 0.213 0.131 0.263 0.131 4.319v4.106l-1.844-0.037-0.019-3.487-0.013-3.481h-1.813l-0.012 3.481-0.019 3.487-1.844 0.037v-4.112c0-3.894 0.006-4.119 0.119-4.288 0.131-0.206 0.325-0.35 0.556-0.419 0.094-0.031 1.081-0.050 2.2-0.044 1.794 0.012 2.056 0.025 2.231 0.119zM26.408 21.369c0.144 0.062 0.325 0.212 0.406 0.325l0.15 0.213v2.575c0 2.5-0.006 2.575-0.131 2.744-0.069 0.094-0.206 0.231-0.3 0.3-0.169 0.125-0.244 0.131-2.756 0.131-2.531 0-2.587 0-2.762-0.131-0.094-0.075-0.231-0.225-0.3-0.344-0.119-0.2-0.125-0.325-0.125-2.712 0-2.394 0.006-2.506 0.125-2.719 0.075-0.131 0.244-0.275 0.406-0.363 0.275-0.137 0.313-0.137 2.656-0.137 2.181 0 2.394 0.013 2.631 0.119z"></path>
<path fill="#00679a" style="fill: var(--color1, #00679a)" d="M22.481 23.169c-0.025 0.019-0.044 0.625-0.044 1.344v1.3h2.688v-2.687h-1.3c-0.719 0-1.325 0.019-1.344 0.044z"></path>
</symbol>
<symbol id="icon-ic_baseline-construction" viewBox="0 0 32 32">
<path fill="#00679a" style="fill: var(--color1, #00679a)" d="M18.882 21.631l3.428-3.428 9.691 9.69-3.428 3.428-9.691-9.69zM24.889 13.273c3.119 0 5.657-2.537 5.657-5.657 0-0.937-0.259-1.81-0.663-2.586l-4.364 4.364-2.408-2.408 4.364-4.364c-0.776-0.404-1.649-0.663-2.586-0.663-3.119 0-5.657 2.537-5.657 5.657 0 0.663 0.129 1.293 0.339 1.875l-2.99 2.99-2.877-2.877 1.147-1.147-2.279-2.279 3.426-3.426c-0.909-0.908-2.141-1.418-3.426-1.418s-2.517 0.51-3.426 1.418l-5.721 5.721 2.279 2.279h-4.558l-1.147 1.147 5.721 5.721 1.147-1.147v-4.574l2.279 2.279 1.147-1.148 2.877 2.877-11.976 11.976 3.426 3.426 18.392-18.376c0.582 0.21 1.212 0.339 1.875 0.339z"></path>
</symbol>
<symbol id="icon-ic_baseline-maps-home-work" viewBox="0 0 32 32">
<path fill="#00679a" style="fill: var(--color1, #00679a)" d="M0 14.303v14.545h7.273v-8.727h5.818v8.727h7.273v-14.545l-10.182-7.273-10.182 7.273z"></path>
<path fill="#00679a" style="fill: var(--color1, #00679a)" d="M13.094 2.667v2.865l10.182 7.273v1.498h2.909v2.909h-2.909v2.909h2.909v2.909h-2.909v5.818h8.727v-26.182h-18.909zM26.185 11.394h-2.909v-2.909h2.909v2.909z"></path>
</symbol>
<symbol id="icon-ic_outline-electrical-services" viewBox="0 0 32 32">
<path fill="#00679a" style="fill: var(--color1, #00679a)" d="M31.571 19.111c0-0.978-0.756-1.778-1.68-1.778h-3.359v3.556h3.359c0.924 0 1.68-0.8 1.68-1.778zM29.892 24.445h-3.359v3.555h3.359c0.924 0 1.68-0.8 1.68-1.778s-0.756-1.778-1.68-1.778zM16.453 19.111h-3.36v7.111h3.36c0 1.956 1.512 3.556 3.36 3.556h5.039v-14.222h-5.039c-1.848 0-3.36 1.6-3.36 3.556z"></path>
<path fill="#00679a" style="fill: var(--color1, #00679a)" d="M4.693 17.333c0-1.956 1.512-3.556 3.36-3.556h2.52c3.242 0 5.879-2.791 5.879-6.222s-2.637-6.222-5.879-6.222h-5.879c-0.924 0-1.68 0.8-1.68 1.778s0.756 1.778 1.68 1.778h5.879c1.394 0 2.52 1.191 2.52 2.667s-1.125 2.667-2.52 2.667h-2.52c-3.712 0-6.719 3.182-6.719 7.111s3.007 7.111 6.719 7.111h3.36v-3.555h-3.36c-1.848 0-3.36-1.6-3.36-3.556z"></path>
</symbol>
<symbol id="icon-ion_paw-sharp" viewBox="0 0 32 32">
<path fill="#00679a" style="fill: var(--color1, #00679a)" d="M27.675 22.614c-0.55-1.569-1.832-2.364-3.069-3.133-1.077-0.669-2.094-1.302-2.759-2.437-1.833-3.146-2.84-5.044-5.843-5.044s-4.013 1.899-5.851 5.043c-0.666 1.138-1.688 1.772-2.766 2.443-1.237 0.769-2.517 1.563-3.069 3.128-0.215 0.565-0.323 1.164-0.319 1.768 0 2.546 2.028 4.618 4.275 4.618s5.207-1.133 7.735-1.133c2.528 0 5.447 1.133 7.722 1.133s4.268-2.072 4.268-4.618c0.002-0.604-0.108-1.204-0.325-1.768z"></path>
<path fill="#00679a" style="fill: var(--color1, #00679a)" d="M4.5 18c1.933 0 3.5-2.015 3.5-4.5s-1.567-4.5-3.5-4.5-3.5 2.015-3.5 4.5c0 2.485 1.567 4.5 3.5 4.5z"></path>
<path fill="#00679a" style="fill: var(--color1, #00679a)" d="M11.5 12c1.933 0 3.5-2.015 3.5-4.5s-1.567-4.5-3.5-4.5c-1.933 0-3.5 2.015-3.5 4.5s1.567 4.5 3.5 4.5z"></path>
<path fill="#00679a" style="fill: var(--color1, #00679a)" d="M20.5 12c1.933 0 3.5-2.015 3.5-4.5s-1.567-4.5-3.5-4.5c-1.933 0-3.5 2.015-3.5 4.5s1.567 4.5 3.5 4.5z"></path>
<path fill="#00679a" style="fill: var(--color1, #00679a)" d="M27.5 18c1.933 0 3.5-2.015 3.5-4.5s-1.567-4.5-3.5-4.5-3.5 2.015-3.5 4.5c0 2.485 1.567 4.5 3.5 4.5z"></path>
</symbol>
<symbol id="icon-mdi_hanger" viewBox="0 0 32 32">
<path fill="#00679a" style="fill: var(--color1, #00679a)" d="M16 4c-1.485 0-2.91 0.59-3.96 1.64s-1.64 2.475-1.64 3.96h3.2c0-0.637 0.253-1.247 0.703-1.697s1.061-0.703 1.697-0.703c0.637 0 1.247 0.253 1.697 0.703s0.703 1.061 0.703 1.697c0 0.637-0.253 1.247-0.703 1.697s-1.061 0.703-1.697 0.703c-0.88 0-1.6 0.72-1.6 1.6v2.8l-13.76 10.32c-0.269 0.201-0.467 0.482-0.567 0.803s-0.097 0.664 0.009 0.983c0.106 0.319 0.31 0.596 0.582 0.792s0.6 0.302 0.936 0.302h28.8c0.336 0 0.663-0.106 0.936-0.302s0.476-0.473 0.582-0.792c0.106-0.319 0.109-0.663 0.009-0.983s-0.299-0.601-0.567-0.803l-13.76-10.32v-1.44c1.155-0.344 2.167-1.052 2.888-2.017s1.111-2.138 1.112-3.343c0-1.485-0.59-2.91-1.64-3.96s-2.475-1.64-3.96-1.64zM16 19.2l9.6 7.2h-19.2l9.6-7.2z"></path>
</symbol>
<symbol id="icon-palm-tree-1" viewBox="0 0 32 32">
<path fill="#00679a" style="fill: var(--color1, #00679a)" d="M7.171 0.063c-1.075 0.181-2.019 0.65-2.931 1.45-0.475 0.419-0.6 0.675-0.494 1.006 0.094 0.275 3.15 3.331 3.4 3.388 0.231 0.063 0.431 0 0.656-0.188 0.106-0.088 0.206-0.156 0.225-0.156s0.037 0.306 0.037 0.681c0 0.631 0.012 0.7 0.15 0.862l0.15 0.181-0.769 0.075c-1.269 0.119-2.3 0.394-3.219 0.856-2.138 1.075-3.413 2.931-3.544 5.188-0.044 0.737 0.037 0.969 0.394 1.137 0.212 0.106 0.269 0.1 2.381-0.287 1.194-0.213 2.225-0.431 2.306-0.481 0.081-0.056 0.263-0.337 0.412-0.625s0.281-0.525 0.3-0.525c0.019 0 0.1 0.125 0.181 0.287 0.206 0.387 0.463 0.588 0.744 0.588 0.125 0 1.55-0.281 3.163-0.625s2.963-0.625 3.006-0.625c0.044 0 0.075 0.094 0.081 0.219 0.013 0.281 0.175 0.525 0.431 0.631 0.294 0.125 3.244 0.125 3.537 0 0.256-0.106 0.419-0.35 0.431-0.631 0.006-0.125 0.038-0.219 0.081-0.219s1.394 0.281 3.006 0.625c1.612 0.344 3.037 0.625 3.162 0.625 0.281 0 0.538-0.2 0.744-0.588 0.081-0.162 0.163-0.287 0.181-0.287s0.15 0.238 0.3 0.525 0.331 0.569 0.413 0.625c0.081 0.050 1.112 0.269 2.306 0.481 2.113 0.387 2.169 0.394 2.381 0.287 0.356-0.169 0.437-0.4 0.394-1.137-0.169-2.85-2.206-5.094-5.294-5.819-0.544-0.125-1.587-0.275-1.956-0.275h-0.306l0.163-0.194c0.156-0.181 0.163-0.231 0.163-0.875 0-0.375 0.019-0.681 0.037-0.681s0.119 0.069 0.225 0.156c0.225 0.188 0.425 0.25 0.656 0.188 0.25-0.056 3.306-3.112 3.4-3.388 0.106-0.331-0.019-0.587-0.494-1.006-0.769-0.675-1.413-1.038-2.306-1.294-2.8-0.813-6.006 0.825-8.169 4.175-0.406 0.631-0.813 1.431-1.069 2.088-0.1 0.25-0.194 0.456-0.219 0.456s-0.119-0.206-0.219-0.456c-0.719-1.856-2.050-3.675-3.544-4.862-1.556-1.225-3.488-1.819-5.069-1.556z"></path>
<path fill="#00679a" style="fill: var(--color1, #00679a)" d="M13.961 14.725c-0.287 0.144-0.375 0.394-0.45 1.287-0.075 0.963-0.031 1.15 0.306 1.381 0.137 0.094 0.381 0.106 2.187 0.106s2.050-0.013 2.187-0.106c0.338-0.231 0.381-0.419 0.306-1.381-0.075-0.9-0.163-1.15-0.463-1.287-0.306-0.15-3.775-0.144-4.075 0z"></path>
<path fill="#00679a" style="fill: var(--color1, #00679a)" d="M13.828 19c-0.237 0.056-0.444 0.225-0.519 0.419-0.025 0.075-0.081 0.506-0.119 0.956-0.069 0.744-0.063 0.837 0.044 1.050 0.213 0.444 0.263 0.45 2.769 0.45 2.5 0 2.556-0.006 2.769-0.444 0.1-0.212 0.106-0.306 0.044-1.062-0.075-0.9-0.125-1.069-0.394-1.269-0.169-0.125-0.256-0.131-2.281-0.144-1.156-0.006-2.2 0.013-2.313 0.044z"></path>
<path fill="#00679a" style="fill: var(--color1, #00679a)" d="M13.334 23.406c-0.306 0.131-0.394 0.381-0.469 1.319-0.075 0.956-0.031 1.15 0.287 1.344 0.181 0.112 0.363 0.119 2.85 0.119s2.669-0.006 2.85-0.119c0.325-0.194 0.363-0.388 0.281-1.35-0.075-0.956-0.156-1.181-0.475-1.319-0.313-0.125-5.025-0.125-5.325 0.006z"></path>
<path fill="#00679a" style="fill: var(--color1, #00679a)" d="M13.28 27.663c-0.619 0.144-0.65 0.231-0.787 2.050-0.063 0.825-0.1 1.594-0.081 1.706 0.050 0.256 0.294 0.506 0.55 0.55 0.106 0.019 1.55 0.031 3.206 0.019l3.006-0.019 0.163-0.15c0.281-0.269 0.294-0.412 0.169-2.075-0.125-1.656-0.169-1.831-0.5-2.006-0.125-0.063-0.75-0.081-2.881-0.094-1.494 0-2.775 0.006-2.844 0.019z"></path>
</symbol>
<symbol id="icon-zondicons_computer-laptop" viewBox="0 0 32 32">
<path fill="#00679a" style="fill: var(--color1, #00679a)" d="M28.439 24.533h3.012v1.371c0 0.364-0.159 0.713-0.441 0.97s-0.665 0.402-1.065 0.402h-27.106c-0.399 0-0.782-0.144-1.065-0.402s-0.441-0.606-0.441-0.97v-1.371h3.012v-16.457c0-1.509 1.355-2.743 3.012-2.743h18.071c0.799 0 1.565 0.289 2.13 0.803s0.882 1.212 0.882 1.939v16.457zM7.357 8.076v12.343h18.071v-12.343h-18.071zM13.38 23.162v1.371h6.023v-1.371h-6.023z"></path>
</symbol>
</defs>
</svg>
