<svg width="172" height="25" viewBox="0 0 172 25" fill="none" xmlns="http://www.w3.org/2000/svg">
<path d="M78.5784 17.0703L66.6997 5.07875H61.7055V7.5335V12.4712C60.6616 8.23889 56.7678 5.05054 52.1405 5.05054H42.914V13.1202C42.1522 8.60569 38.0891 5.07875 33.2361 5.07875H24.0096V22.3749L16.1939 5.07875H9.30931L0.5625 24.4346H6.14917L8.03961 20.2305H17.4354L19.3258 24.4346H23.9814H33.1796C38.0609 24.4346 42.0957 20.9359 42.8576 16.365V24.4346H52.084C56.7114 24.4346 60.6051 21.2745 61.6491 17.0139V24.4346H66.7561V12.5841L78.5502 24.4628H83.6572V22.0927V5.07875H78.5502V17.0703H78.5784ZM10.3533 15.1235L12.7516 9.81896L15.1499 15.1235H10.3533ZM33.2361 19.4405H29.1166V10.1293H33.2361C35.8601 10.1293 37.9763 12.2173 37.9763 14.7849C37.9481 17.3525 35.8319 19.4405 33.2361 19.4405ZM52.1405 19.4405H48.021V10.1293H52.1405C54.7645 10.1293 56.8807 12.2173 56.8807 14.7849C56.8525 17.3525 54.7363 19.4405 52.1405 19.4405Z" fill="#003654"/>
<path d="M127.899 0L122.538 18.7633L118.391 5.07879H111.534L110.688 7.87213L107.443 18.6222L105.524 12.2455H99.7683L103.465 24.4346H111.28L114.976 10.609L118.673 24.4346H126.488L133.712 0H127.899Z" fill="#003654"/>
<path d="M89.5825 17.268H99.0347V12.2456H89.5825V10.1012H100.982V5.07886H84.5037V24.4629H100.982V19.4406H89.5825V17.268Z" fill="#003654"/>
<path d="M132.103 19.4404C130.721 19.4404 129.592 20.5691 129.592 21.9516C129.592 23.3342 130.721 24.4628 132.103 24.4628C133.486 24.4628 134.614 23.3342 134.614 21.9516C134.614 20.5408 133.486 19.4404 132.103 19.4404Z" fill="#003654"/>
<path d="M135.179 24.4065V5.10706H144.8C147.678 5.10706 149.935 5.69958 151.6 6.91285C153.265 8.12612 154.111 9.79083 154.111 11.9352C154.111 14.136 153.237 15.8572 151.459 17.0704C149.682 18.2837 147.368 18.9044 144.462 18.9044H141.386V24.4347H135.179V24.4065ZM141.414 14.7003H144.377C145.477 14.7003 146.352 14.4746 147.001 14.0232C147.622 13.5717 147.96 12.951 147.96 12.1609C147.96 11.3427 147.65 10.6937 147.001 10.2705C146.38 9.84726 145.477 9.62154 144.349 9.62154H141.443V14.7003H141.414Z" fill="#003654"/>
<path d="M154.93 24.4065V5.10706H161.137V19.7227H172V24.4065H154.93Z" fill="#003654"/>
</svg>
